<svg id="svg" fill="#b31919" stroke="#b31919" width="200" height="200" version="1.1" viewBox="144 144 512 512" xmlns="http://www.w3.org/2000/svg">
    <g id="IconSvg_bgCarrier" stroke-width="0"></g>
    <g id="IconSvg_tracerCarrier" stroke-linecap="round" stroke-linejoin="round" stroke="#CCCCCC" stroke-width="0">
      <g xmlns="http://www.w3.org/2000/svg">
  <path d="m518.08 573.18h-31.488v-56.523c-2.5117 0.95703-5.1836 1.4375-7.8711 1.418h-157.44c-2.6875 0.019531-5.3555-0.46094-7.8711-1.418v56.523h-31.488v47.23h-23.617v15.742l283.39 0.003906v-15.746h-23.617zm-86.59-23.617h15.742v23.617h-15.742zm-39.359 0h15.742v23.617h-15.746zm-39.359 0h15.742v23.617h-15.746z"></path>
  <path d="m313.41 494.46c0 2.0898 0.82812 4.0938 2.3047 5.5664 1.4766 1.4766 3.4805 2.3086 5.5664 2.3086h157.44c4.3477 0 7.8711-3.5273 7.8711-7.875 0-4.3477-3.5234-7.8711-7.8711-7.8711h-157.44c-4.3477 0-7.8711 3.5234-7.8711 7.8711z"></path>
  <path d="m321.28 313.41h157.44c4.3477 0 7.8711-3.5234 7.8711-7.8711s-3.5234-7.8711-7.8711-7.8711h-157.44c-4.3477 0-7.8711 3.5234-7.8711 7.8711s3.5234 7.8711 7.8711 7.8711z"></path>
  <path d="m470.85 274.05c0-25.312-13.504-48.703-35.426-61.355-21.918-12.656-48.926-12.656-70.848 0-21.922 12.652-35.426 36.043-35.426 61.355v7.8711h141.7z"></path>
  <path d="m329.15 329.15v141.7h141.7v-141.7zm70.848 118.08h0.003906c-12.527 0-24.543-4.9766-33.398-13.832-8.8594-8.8594-13.836-20.875-13.836-33.398 0-12.527 4.9766-24.543 13.836-33.398 8.8555-8.8594 20.871-13.836 33.398-13.836 12.523 0 24.539 4.9766 33.398 13.836 8.8555 8.8555 13.832 20.871 13.832 33.398 0 12.523-4.9766 24.539-13.832 33.398-8.8594 8.8555-20.875 13.832-33.398 13.832z"></path>
  <path d="m431.49 400c0 17.391-14.098 31.488-31.488 31.488s-31.488-14.098-31.488-31.488 14.098-31.488 31.488-31.488 31.488 14.098 31.488 31.488"></path>
  <path d="m533.82 368.51h-15.746v15.742h-31.488v31.488h31.488v15.746h31.488v-62.977z"></path>
  <path d="m281.92 431.49v-15.746h31.488v-31.488h-31.488v-15.742h-31.488v62.977z"></path>
  <path d="m423.61 190.68v-26.844h-47.23v26.926c7.6719-2.2266 15.625-3.3398 23.617-3.3086 7.9805-0.007813 15.926 1.0781 23.613 3.2266z"></path>
 </g>

      </g>
     <g id="IconSvg_iconCarrier">
      <g xmlns="http://www.w3.org/2000/svg">
  <path d="m518.08 573.18h-31.488v-56.523c-2.5117 0.95703-5.1836 1.4375-7.8711 1.418h-157.44c-2.6875 0.019531-5.3555-0.46094-7.8711-1.418v56.523h-31.488v47.23h-23.617v15.742l283.39 0.003906v-15.746h-23.617zm-86.59-23.617h15.742v23.617h-15.742zm-39.359 0h15.742v23.617h-15.746zm-39.359 0h15.742v23.617h-15.746z"></path>
  <path d="m313.41 494.46c0 2.0898 0.82812 4.0938 2.3047 5.5664 1.4766 1.4766 3.4805 2.3086 5.5664 2.3086h157.44c4.3477 0 7.8711-3.5273 7.8711-7.875 0-4.3477-3.5234-7.8711-7.8711-7.8711h-157.44c-4.3477 0-7.8711 3.5234-7.8711 7.8711z"></path>
  <path d="m321.28 313.41h157.44c4.3477 0 7.8711-3.5234 7.8711-7.8711s-3.5234-7.8711-7.8711-7.8711h-157.44c-4.3477 0-7.8711 3.5234-7.8711 7.8711s3.5234 7.8711 7.8711 7.8711z"></path>
  <path d="m470.85 274.05c0-25.312-13.504-48.703-35.426-61.355-21.918-12.656-48.926-12.656-70.848 0-21.922 12.652-35.426 36.043-35.426 61.355v7.8711h141.7z"></path>
  <path d="m329.15 329.15v141.7h141.7v-141.7zm70.848 118.08h0.003906c-12.527 0-24.543-4.9766-33.398-13.832-8.8594-8.8594-13.836-20.875-13.836-33.398 0-12.527 4.9766-24.543 13.836-33.398 8.8555-8.8594 20.871-13.836 33.398-13.836 12.523 0 24.539 4.9766 33.398 13.836 8.8555 8.8555 13.832 20.871 13.832 33.398 0 12.523-4.9766 24.539-13.832 33.398-8.8594 8.8555-20.875 13.832-33.398 13.832z"></path>
  <path d="m431.49 400c0 17.391-14.098 31.488-31.488 31.488s-31.488-14.098-31.488-31.488 14.098-31.488 31.488-31.488 31.488 14.098 31.488 31.488"></path>
  <path d="m533.82 368.51h-15.746v15.742h-31.488v31.488h31.488v15.746h31.488v-62.977z"></path>
  <path d="m281.92 431.49v-15.746h31.488v-31.488h-31.488v-15.742h-31.488v62.977z"></path>
  <path d="m423.61 190.68v-26.844h-47.23v26.926c7.6719-2.2266 15.625-3.3398 23.617-3.3086 7.9805-0.007813 15.926 1.0781 23.613 3.2266z"></path>
 </g>

      </g>
      </svg>