<?xml version="1.0" encoding="iso-8859-1"?>
<!-- Uploaded to: SVG Repo, www.svgrepo.com, Generator: SVG Repo Mixer Tools -->
<svg version="1.1" id="Layer_1" xmlns="http://www.w3.org/2000/svg" xmlns:xlink="http://www.w3.org/1999/xlink" 
	 viewBox="0 0 512 512" xml:space="preserve">
<path style="fill:#A93439;" d="M288.565,11.128C288.565,5.008,283.558,0,277.437,0h-42.873c-6.121,0-11.128,5.008-11.128,11.128
	v24.476c0,6.121,5.008,11.129,11.128,11.129h42.873c6.121,0,11.129-5.008,11.129-11.129V11.128z"/>
<path style="fill:#FF5959;" d="M127.436,288.374c0-6.098-4.99-11.09-11.09-11.09h-12.92c-6.1,0-11.091,4.99-11.091,11.09v31.72
	c0,6.101,4.991,11.091,11.091,11.091h12.919c6.1,0,11.09-4.99,11.09-11.091v-31.72H127.436z"/>
<path style="fill:#A93439;" d="M153.926,265.204c0-7.291-5.965-13.256-13.256-13.256h-11.915c-7.291,0-13.256,5.965-13.256,13.256
	v78.059c0,7.291,5.965,13.256,13.256,13.256h11.915c7.291,0,13.256-5.965,13.256-13.256V265.204z"/>
<path style="fill:#FF5959;" d="M384.564,288.374c0-6.098,4.99-11.09,11.09-11.09h12.919c6.1,0,11.091,4.99,11.091,11.09v31.72
	c0,6.101-4.991,11.091-11.091,11.091h-12.919c-6.1,0-11.09-4.99-11.09-11.091V288.374z"/>
<path style="fill:#A93439;" d="M358.074,265.204c0-7.291,5.965-13.256,13.256-13.256h11.915c7.291,0,13.256,5.965,13.256,13.256
	v78.059c0,7.291-5.965,13.256-13.256,13.256H371.33c-7.291,0-13.256-5.965-13.256-13.256V265.204z"/>
<g>
	<path style="fill:#FF5959;" d="M398.286,140.193c-4.609,0-8.346-3.737-8.346-8.346v-16.792c0-4.609,3.737-8.346,8.346-8.346
		c4.609,0,8.346,3.737,8.346,8.346v16.792C406.632,136.457,402.895,140.193,398.286,140.193z"/>
	<path style="fill:#FF5959;" d="M113.715,140.193c-4.609,0-8.346-3.737-8.346-8.346v-16.792c0-4.609,3.737-8.346,8.346-8.346
		c4.609,0,8.346,3.737,8.346,8.346v16.792C122.062,136.457,118.325,140.193,113.715,140.193z"/>
	<path style="fill:#FF5959;" d="M367.355,134.721c0-61.499-49.856-111.355-111.355-111.355
		c-61.498,0-111.354,49.856-111.354,111.355H367.355z"/>
	<rect x="139.763" y="173.393" style="fill:#FF5959;" width="232.463" height="289.096"/>
</g>
<rect x="139.763" y="408.494" style="opacity:0.2;enable-background:new    ;" width="232.463" height="26.708"/>
<g>
	<path style="fill:#A93439;" d="M330.898,206.475c-4.609,0-8.346-3.737-8.346-8.346v-16.792c0-4.609,3.737-8.346,8.346-8.346
		c4.609,0,8.346,3.737,8.346,8.346v16.792C339.245,202.738,335.508,206.475,330.898,206.475z"/>
	<path style="fill:#A93439;" d="M255.996,206.475c-4.609,0-8.346-3.737-8.346-8.346v-16.792c0-4.609,3.737-8.346,8.346-8.346
		c4.609,0,8.346,3.737,8.346,8.346v16.792C264.342,202.738,260.605,206.475,255.996,206.475z"/>
	<path style="fill:#A93439;" d="M173.81,206.475c-4.609,0-8.346-3.737-8.346-8.346v-16.792c0-4.609,3.737-8.346,8.346-8.346
		s8.346,3.737,8.346,8.346v16.792C182.157,202.738,178.42,206.475,173.81,206.475z"/>
</g>
<rect x="139.763" y="173.393" style="opacity:0.2;enable-background:new    ;" width="232.463" height="39.239"/>
<g>
	<path style="fill:#A93439;" d="M424.795,143.777c0-10.937-8.948-19.884-19.884-19.884H107.09c-10.936,0-19.884,8.947-19.884,19.884
		v20.327c0,10.936,8.948,19.883,19.884,19.883H404.91c10.936,0,19.884-8.947,19.884-19.883V143.777z"/>
	<path style="fill:#A93439;" d="M410.026,481.572v23.799c0,3.646-2.982,6.628-6.628,6.628H108.602c-3.646,0-6.629-2.982-6.629-6.628
		v-23.799c0-13.469,10.918-24.388,24.388-24.388h259.276C399.108,457.184,410.026,468.104,410.026,481.572z"/>
	<circle style="fill:#A93439;" cx="256" cy="304.231" r="52.286"/>
</g>
<circle style="fill:#FF5959;" cx="256" cy="304.231" r="26.953"/>
<path style="fill:#A93439;" d="M385.482,412.245c0,4.284-3.505,7.79-7.79,7.79H134.308c-4.284,0-7.79-3.505-7.79-7.79v-11.963
	c0-4.286,3.505-7.79,7.79-7.79h243.385c4.284,0,7.79,3.504,7.79,7.79V412.245z"/>
<g style="opacity:0.2;">
	<path d="M255.996,104.495c-4.609,0-8.346-3.737-8.346-8.346V52.007c0-4.609,3.737-8.346,8.346-8.346
		c4.609,0,8.346,3.737,8.346,8.346v44.142C264.342,100.759,260.605,104.495,255.996,104.495z"/>
</g>
<g style="opacity:0.2;">
	<path d="M197.019,104.495c-4.609,0-8.346-3.737-8.346-8.346V73.892c0-4.609,3.737-8.346,8.346-8.346s8.346,3.737,8.346,8.346
		v22.257C205.365,100.759,201.628,104.495,197.019,104.495z"/>
</g>
<g style="opacity:0.2;">
	<path d="M314.971,104.495c-4.609,0-8.346-3.737-8.346-8.346V73.892c0-4.609,3.737-8.346,8.346-8.346
		c4.609,0,8.346,3.737,8.346,8.346v22.257C323.317,100.759,319.58,104.495,314.971,104.495z"/>
</g>
</svg>