<svg display="none" xmlns="http://www.w3.org/2000/svg">

    <symbol id="facebook" viewBox="0 0 20 20">
			<path fill-rule="evenodd" clip-rule="evenodd" d="M17.4756 1.60156H2.52361C2.0133 1.60156 1.59961 2.01525 1.59961 2.52556V17.4776C1.59961 17.7226 1.69696 17.9576 1.87024 18.1309C2.04353 18.3042 2.27855 18.4016 2.52361 18.4016H10.5708V11.8916H8.38681V9.37156H10.5708V7.48156C10.4792 6.58336 10.7893 5.69061 11.4179 5.04255C12.0465 4.39449 12.9294 4.05738 13.83 4.12156C14.4838 4.11754 15.1373 4.15119 15.7872 4.22236V6.49036H14.4516C13.3932 6.49036 13.1916 6.99436 13.1916 7.72516V9.34636H15.7116L15.384 11.8664H13.1916V18.4016H17.4756C17.7207 18.4016 17.9557 18.3042 18.129 18.1309C18.3023 17.9576 18.3996 17.7226 18.3996 17.4776V2.52556C18.3996 2.2805 18.3023 2.04548 18.129 1.8722C17.9557 1.69891 17.7207 1.60156 17.4756 1.60156Z" />
    </symbol>

		<symbol id="twitter" viewBox="0 0 20 20">
			<path fill-rule="evenodd" clip-rule="evenodd" d="M18.3996 4.76448C17.7682 5.03985 17.1005 5.22189 16.4172 5.30493C17.1381 4.872 17.6783 4.19092 17.9376 3.38804C17.2602 3.79343 16.5186 4.07905 15.7452 4.23248C14.6819 3.0733 12.9738 2.78279 11.5904 3.52584C10.207 4.2689 9.49772 5.8578 9.86521 7.39071C7.09519 7.24986 4.51501 5.93299 2.76721 3.76804C2.46408 4.30018 2.30481 4.90282 2.30521 5.51604C2.30303 6.67269 2.87692 7.75364 3.83401 8.3956C3.28631 8.38062 2.75031 8.23287 2.27161 7.96493V8.00715C2.28007 9.65211 3.43873 11.064 5.04361 11.3849C4.74394 11.4766 4.43282 11.5249 4.11961 11.5285C3.9028 11.5259 3.68652 11.5062 3.47281 11.4694C3.92723 12.8763 5.2188 13.8391 6.69001 13.8676C5.47806 14.8263 3.98175 15.3495 2.43961 15.3538C2.15883 15.3547 1.87827 15.3378 1.59961 15.3032C3.17413 16.3251 5.00901 16.8677 6.88321 16.8654C9.49583 16.8926 12.0097 15.8631 13.8596 14.0082C15.7094 12.1533 16.74 9.62877 16.7196 7.00226C16.7196 6.85871 16.7196 6.70671 16.7196 6.55471C17.3788 6.06055 17.9472 5.45475 18.3996 4.76448Z" />
    </symbol>
		
		<symbol id="instagram" viewBox="0 0 20 20">
			<path fill-rule="evenodd" clip-rule="evenodd" d="M13.4852 3.50796C13.0775 3.50796 12.71 3.75355 12.5539 4.13022C12.3979 4.50688 12.4842 4.94044 12.7724 5.22873C13.0607 5.51701 13.4943 5.60325 13.871 5.44723C14.2476 5.29121 14.4932 4.92366 14.4932 4.51596C14.4932 3.95926 14.0419 3.50796 13.4852 3.50796ZM17.3492 5.54076C17.3329 4.84381 17.2023 4.15426 16.9628 3.49956C16.7492 2.93939 16.4168 2.43216 15.9884 2.01276C15.5725 1.5822 15.064 1.25187 14.5016 1.04676C13.8486 0.799938 13.1583 0.666419 12.4604 0.651962C11.57 0.601562 11.2844 0.601562 8.99961 0.601562C6.71481 0.601562 6.42921 0.601562 5.53881 0.651962C4.8409 0.666419 4.15058 0.799938 3.49761 1.04676C2.93622 1.25395 2.42823 1.58399 2.01081 2.01276C1.58025 2.42871 1.24992 2.93713 1.04481 3.49956C0.797984 4.15253 0.664466 4.84285 0.650009 5.54076C0.599609 6.43116 0.599609 6.71676 0.599609 9.00156C0.599609 11.2864 0.599609 11.572 0.650009 12.4624C0.664466 13.1603 0.797984 13.8506 1.04481 14.5036C1.24992 15.066 1.58025 15.5744 2.01081 15.9904C2.42823 16.4191 2.93622 16.7492 3.49761 16.9564C4.15058 17.2032 4.8409 17.3367 5.53881 17.3512C6.42921 17.4016 6.71481 17.4016 8.99961 17.4016C11.2844 17.4016 11.57 17.4016 12.4604 17.3512C13.1583 17.3367 13.8486 17.2032 14.5016 16.9564C15.064 16.7513 15.5725 16.4209 15.9884 15.9904C16.4187 15.5725 16.7514 15.0648 16.9628 14.5036C17.2023 13.8489 17.3329 13.1593 17.3492 12.4624C17.3492 11.572 17.3996 11.2864 17.3996 9.00156C17.3996 6.71676 17.3996 6.43116 17.3492 5.54076ZM15.8372 12.3616C15.8311 12.8948 15.7345 13.4231 15.5516 13.924C15.4175 14.2895 15.2021 14.6198 14.9216 14.89C14.6492 15.1676 14.3195 15.3826 13.9556 15.52C13.4547 15.7029 12.9264 15.7994 12.3932 15.8056C11.5532 15.8476 11.2424 15.856 9.03321 15.856C6.82401 15.856 6.51321 15.856 5.67321 15.8056C5.11956 15.8159 4.56827 15.7307 4.04361 15.5536C3.69567 15.4091 3.38115 15.1947 3.11961 14.9236C2.8408 14.6537 2.62808 14.3231 2.49801 13.9576C2.29293 13.4495 2.17918 12.9092 2.16201 12.3616C2.16201 11.5216 2.11161 11.2108 2.11161 9.00156C2.11161 6.79236 2.11161 6.48156 2.16201 5.64156C2.16577 5.09645 2.26529 4.55624 2.45601 4.04556C2.60389 3.69101 2.83087 3.37496 3.11961 3.12156C3.37481 2.83274 3.69021 2.60336 4.04361 2.44956C4.55563 2.2648 5.09529 2.16823 5.63961 2.16396C6.47961 2.16396 6.79041 2.11356 8.99961 2.11356C11.2088 2.11356 11.5196 2.11356 12.3596 2.16396C12.8928 2.17008 13.4211 2.26665 13.922 2.44956C14.3037 2.59123 14.6463 2.82155 14.9216 3.12156C15.1969 3.37959 15.412 3.69506 15.5516 4.04556C15.7383 4.55707 15.8349 5.09706 15.8372 5.64156C15.8792 6.48156 15.8876 6.79236 15.8876 9.00156C15.8876 11.2108 15.8792 11.5216 15.8372 12.3616ZM8.99961 4.69236C6.6208 4.697 4.69572 6.62834 4.69881 9.00715C4.7019 11.386 6.63199 13.3123 9.0108 13.3108C11.3896 13.3092 13.3172 11.3804 13.3172 9.00156C13.3195 7.85655 12.865 6.75791 12.0546 5.94905C11.2441 5.14018 10.1446 4.68789 8.99961 4.69236ZM8.99961 11.7988C7.45476 11.7988 6.20241 10.5464 6.20241 9.00156C6.20241 7.45671 7.45476 6.20436 8.99961 6.20436C10.5445 6.20436 11.7968 7.45671 11.7968 9.00156C11.7968 9.74343 11.5021 10.4549 10.9775 10.9795C10.453 11.5041 9.74147 11.7988 8.99961 11.7988Z" />
    </symbol>
		
		<symbol id="pinterest" viewBox="0 0 20 20">
			<path d="M9.99968 19.1503C15.0623 19.1503 19.1663 15.0496 19.1663 9.99116C19.1663 4.93271 15.0623 0.832031 9.99968 0.832031C4.93706 0.832031 0.833008 4.93271 0.833008 9.99116C0.833008 15.0496 4.93706 19.1503 9.99968 19.1503Z" fill="white" />
    	<path d="M9.99967 0.832031C4.93726 0.832031 0.833008 4.93291 0.833008 9.99116C0.833008 13.8734 3.24727 17.1903 6.65742 18.5246C6.57443 17.8009 6.50653 16.6852 6.6876 15.8937C6.85358 15.1776 7.75893 11.3405 7.75893 11.3405C7.75893 11.3405 7.48733 10.7902 7.48733 9.98362C7.48733 8.70964 8.2267 7.7598 9.14714 7.7598C9.93177 7.7598 10.309 8.34779 10.309 9.04886C10.309 9.83285 9.81106 11.0088 9.547 12.1019C9.32821 13.014 10.0072 13.7603 10.905 13.7603C12.5347 13.7603 13.7871 12.0416 13.7871 9.56901C13.7871 7.37534 12.2102 5.84505 9.95441 5.84505C7.34398 5.84505 5.81243 7.79749 5.81243 9.81778C5.81243 10.6018 6.11421 11.4461 6.49144 11.9059C6.56689 11.9964 6.57443 12.0793 6.5518 12.1698C6.4839 12.4562 6.32546 13.0819 6.29529 13.21C6.25756 13.3759 6.15948 13.4136 5.98596 13.3307C4.83918 12.7954 4.12245 11.1295 4.12245 9.78009C4.12245 6.89289 6.21984 4.23938 10.1807 4.23938C13.357 4.23938 15.8316 6.50089 15.8316 9.53132C15.8316 12.6899 13.8399 15.2303 11.0785 15.2303C10.1506 15.2303 9.27539 14.7479 8.98116 14.175C8.98116 14.175 8.52094 15.9239 8.40777 16.3535C8.20406 17.1526 7.64577 18.1477 7.26854 18.7583C8.12862 19.0221 9.03397 19.1654 9.98459 19.1654C15.047 19.1654 19.1513 15.0645 19.1513 10.0062C19.1663 4.93291 15.0621 0.832031 9.99967 0.832031Z" />
    </symbol>

</svg>
